<?xml version="1.0" standalone="no"?>
<!DOCTYPE svg PUBLIC "-//W3C//DTD SVG 20010904//EN"
 "http://www.w3.org/TR/2001/REC-SVG-20010904/DTD/svg10.dtd">
<svg version="1.0" xmlns="http://www.w3.org/2000/svg"
 width="621.000000pt" height="216.000000pt" viewBox="0 0 621.000000 216.000000"
 preserveAspectRatio="xMidYMid meet">
<g transform="translate(0.000000,216.000000) scale(0.100000,-0.100000)"
fill="#000000" stroke="none">
<path d="M3035 1666 c-5 -2 -77 -9 -160 -16 -180 -13 -375 -36 -470 -55 -38
-7 -92 -17 -119 -20 -27 -4 -58 -10 -70 -15 -11 -4 -57 -15 -101 -25 -188 -39
-309 -69 -365 -90 -19 -7 -62 -21 -95 -30 -33 -10 -82 -24 -110 -32 -27 -8
-84 -27 -125 -43 -66 -24 -206 -74 -280 -99 -22 -7 -81 -30 -255 -99 -22 -8
-67 -28 -100 -42 -33 -15 -87 -37 -119 -49 -33 -12 -65 -29 -72 -38 l-12 -17
6 -40 c2 -23 8 -48 13 -56 l8 -15 1 28 0 28 15 6 c33 12 35 -44 10 -242 -7
-60 -17 -162 -20 -225 l-7 -116 16 -13 16 -13 10 27 c5 14 10 33 10 42 0 9 4
32 9 52 5 20 17 83 26 141 8 58 20 130 25 160 5 30 12 82 16 115 8 67 29 118
47 112 l12 -4 -1 -44 c-1 -24 -4 -62 -7 -84 -4 -22 -4 -31 -1 -20 9 31 23 43
44 38 l19 -5 6 28 c10 46 14 54 24 54 5 0 12 -11 15 -25 l6 -25 -19 -97 c-11
-54 -23 -129 -26 -168 -4 -38 -11 -75 -15 -80 -5 -6 -10 -34 -11 -63 l-3 -52
12 -12 11 -11 19 44 c20 48 46 127 56 172 l7 28 9 -6 10 -6 0 -94 0 -94 10 -6
10 -6 8 23 c5 13 14 77 21 143 7 66 19 132 27 147 l14 27 0 63 0 63 19 24 18
24 12 -7 c17 -11 13 -72 -10 -156 -16 -60 -57 -278 -59 -312 0 -11 25 -10 53
3 l25 11 5 67 c8 87 30 184 45 189 l11 3 7 -26 c3 -14 2 -64 -3 -111 l-9 -85
9 -6 c5 -3 14 0 20 6 l12 12 -3 93 -4 94 11 6 c17 11 23 -31 16 -113 l-7 -78
11 -8 12 -7 17 14 c9 8 37 20 62 27 25 7 85 31 134 53 50 22 115 49 145 59 31
11 64 24 73 30 20 10 38 17 223 84 72 26 144 50 160 54 17 4 39 13 50 19 11 6
67 25 125 42 58 17 146 44 195 60 107 34 173 53 275 75 167 38 207 47 260 60
52 13 116 24 355 59 55 8 174 23 265 32 l165 17 315 0 315 0 135 -17 c115 -15
299 -45 470 -76 25 -4 61 -13 80 -20 51 -19 106 -36 190 -60 41 -11 83 -25 92
-31 10 -5 24 -9 32 -9 15 0 80 -26 172 -71 34 -16 67 -29 73 -29 9 0 123 -56
221 -110 8 -4 33 -16 55 -26 22 -11 44 -22 50 -27 5 -4 31 -23 57 -42 47 -35
81 -43 108 -25 l15 10 -20 15 c-11 8 -31 24 -45 36 -35 29 -99 69 -110 69 -6
0 -10 4 -10 9 0 5 -9 13 -21 16 -11 4 -46 24 -77 45 -31 20 -95 56 -142 80
-47 23 -96 50 -110 60 -14 9 -41 22 -60 29 -19 6 -43 20 -55 30 -31 27 -177
85 -425 167 -180 59 -192 62 -325 93 -119 27 -185 40 -380 71 -85 14 -232 26
-470 40 -99 6 -187 13 -195 17 l-15 5 20 8 c11 5 130 9 265 9 l245 1 140 -19
c77 -11 153 -24 168 -30 16 -6 40 -11 55 -11 67 0 360 -78 523 -140 57 -22
108 -40 112 -40 8 0 173 -75 230 -105 16 -8 33 -15 37 -15 5 0 28 -12 52 -27
140 -90 258 -142 258 -114 0 12 -72 61 -120 82 -13 5 -27 13 -30 17 -3 4 -16
13 -30 20 -28 13 -62 34 -70 42 -10 11 -318 160 -329 160 -7 0 -25 7 -39 15
-48 26 -155 67 -302 115 -203 66 -235 76 -320 95 -41 9 -93 21 -115 26 -126
31 -346 64 -605 90 -108 11 -743 23 -765 15z m-1731 -894 l-7 -77 -9 50 c-5
28 -5 84 -2 125 l7 75 10 -48 9 -48 -8 -77z"/>
<path d="M536 1003 c-9 -10 -7 -131 3 -137 13 -9 21 20 21 79 0 51 -9 73 -24
58z"/>
<path d="M476 824 c-10 -25 -7 -298 4 -314 l9 -14 9 24 c15 40 26 140 24 210
-3 85 -29 138 -46 94z"/>
<path d="M757 633 c-4 -3 -7 -55 -7 -114 l0 -108 18 -10 19 -10 11 11 12 12 0
91 c0 49 -4 95 -8 100 -14 19 -39 35 -45 28z"/>
</g>
</svg>
